HIERARCHY
ROOT Hips
{
	OFFSET 1.424338 0.179365 3.949874
	CHANNELS 6 Xposition Yposition Zposition Zrotation Yrotation Xrotation 
	JOINT Spine
	{
		OFFSET -0.000016 8.340372 -2.713941
		CHANNELS 3 Zrotation Yrotation Xrotation
		JOINT Spine1
		{
			OFFSET 0.000009 11.909914 -2.100016
			CHANNELS 3 Zrotation Yrotation Xrotation
			JOINT Spine2
			{
				OFFSET -0.000022 12.047706 -1.054058
				CHANNELS 3 Zrotation Yrotation Xrotation
				JOINT Spine3
				{
					OFFSET -0.000065 12.093719 -0.000015
					CHANNELS 3 Zrotation Yrotation Xrotation
					JOINT Neck
					{
						OFFSET 0.000018 15.549128 1.554883
						CHANNELS 3 Zrotation Yrotation Xrotation
						JOINT Neck1
						{
							OFFSET 0.000063 4.687300 0.410094
							CHANNELS 3 Zrotation Yrotation Xrotation
							JOINT Head
							{
								OFFSET 0.000055 4.633841 0.816996
								CHANNELS 3 Zrotation Yrotation Xrotation
								JOINT HeadEnd
								{
									OFFSET 0.000013 9.727667 -0.000059
									CHANNELS 3 Zrotation Yrotation Xrotation
									End Site
									{
										OFFSET 0.000000 0.000000 0.000000
									}
								}
							}
						}
					}
					JOINT RightShoulder
					{
						OFFSET 0.000024 11.106426 6.072613
						CHANNELS 3 Zrotation Yrotation Xrotation
						JOINT RightArm
						{
							OFFSET -19.427952 0.000000 0.000017
							CHANNELS 3 Zrotation Yrotation Xrotation
							JOINT RightForeArm
							{
								OFFSET -29.350705 0.000004 -0.000070
								CHANNELS 3 Zrotation Yrotation Xrotation
								JOINT RightHand
								{
									OFFSET -27.018076 -0.000041 -0.000036
									CHANNELS 3 Zrotation Yrotation Xrotation
									JOINT RightHandMiddle1
									{
										OFFSET -9.244054 -0.000006 0.000002
										CHANNELS 3 Zrotation Yrotation Xrotation
										JOINT RightHandMiddle2
										{
											OFFSET -4.870014 -0.000017 0.000043
											CHANNELS 3 Zrotation Yrotation Xrotation
											JOINT RightHandMiddle3
											{
												OFFSET -3.169053 -0.000003 -0.000000
												CHANNELS 3 Zrotation Yrotation Xrotation
												JOINT RightHandMiddle4
												{
													OFFSET -1.888358 0.000027 -0.000044
													CHANNELS 3 Zrotation Yrotation Xrotation
													End Site
													{
														OFFSET 0.000000 0.000000 0.000000
													}
												}
											}
										}
									}
									JOINT RightHandRing
									{
										OFFSET -0.250009 -0.249981 -0.956500
										CHANNELS 3 Zrotation Yrotation Xrotation
										JOINT RightHandRing1
										{
											OFFSET -8.140181 -0.000007 -0.734583
											CHANNELS 3 Zrotation Yrotation Xrotation
											JOINT RightHandRing2
											{
												OFFSET -4.501536 0.000016 -0.406256
												CHANNELS 3 Zrotation Yrotation Xrotation
												JOINT RightHandRing3
												{
													OFFSET -3.068855 -0.000008 -0.276941
													CHANNELS 3 Zrotation Yrotation Xrotation
													JOINT RightHandRing4
													{
														OFFSET -1.869945 0.000020 -0.168755
														CHANNELS 3 Zrotation Yrotation Xrotation
														End Site
														{
															OFFSET 0.000000 0.000000 0.000000
														}
													}
												}
											}
										}
										JOINT RightHandPinky
										{
											OFFSET -0.163008 -0.250032 -0.975112
											CHANNELS 3 Zrotation Yrotation Xrotation
											JOINT RightHandPinky1
											{
												OFFSET -6.681489 0.000023 -1.494091
												CHANNELS 3 Zrotation Yrotation Xrotation
												JOINT RightHandPinky2
												{
													OFFSET -3.580945 -0.000009 -0.800768
													CHANNELS 3 Zrotation Yrotation Xrotation
													JOINT RightHandPinky3
													{
														OFFSET -2.276481 0.000022 -0.509076
														CHANNELS 3 Zrotation Yrotation Xrotation
														JOINT RightHandPinky4
														{
															OFFSET -1.690361 0.000027 -0.378017
															CHANNELS 3 Zrotation Yrotation Xrotation
															End Site
															{
																OFFSET 0.000000 0.000000 0.000000
															}
														}
													}
												}
											}
										}
									}
									JOINT RightHandIndex
									{
										OFFSET -0.250015 -0.250005 0.956494
										CHANNELS 3 Zrotation Yrotation Xrotation
										JOINT RightHandIndex1
										{
											OFFSET -8.934108 0.000018 0.806270
											CHANNELS 3 Zrotation Yrotation Xrotation
											JOINT RightHandIndex2
											{
												OFFSET -4.694673 0.000041 0.423684
												CHANNELS 3 Zrotation Yrotation Xrotation
												JOINT RightHandIndex3
												{
													OFFSET -2.811733 0.000000 0.253754
													CHANNELS 3 Zrotation Yrotation Xrotation
													JOINT RightHandIndex4
													{
														OFFSET -1.709959 -0.000025 0.154313
														CHANNELS 3 Zrotation Yrotation Xrotation
														End Site
														{
															OFFSET 0.000000 0.000000 0.000000
														}
													}
												}
											}
										}
										JOINT RightHandThumb1
										{
											OFFSET -0.163039 -0.750023 0.975093
											CHANNELS 3 Zrotation Yrotation Xrotation
											JOINT RightHandThumb2
											{
												OFFSET -5.411657 0.835521 2.244706
												CHANNELS 3 Zrotation Yrotation Xrotation
												JOINT RightHandThumb3
												{
													OFFSET -3.567183 0.550767 1.479601
													CHANNELS 3 Zrotation Yrotation Xrotation
													JOINT RightHandThumb4
													{
														OFFSET -2.150549 0.332021 0.892032
														CHANNELS 3 Zrotation Yrotation Xrotation
														End Site
														{
															OFFSET 0.000000 0.000000 0.000000
														}
													}
												}
											}
										}
									}
								}
							}
						}
					}
					JOINT LeftShoulder
					{
						OFFSET -0.000005 11.106400 6.072616
						CHANNELS 3 Zrotation Yrotation Xrotation
						JOINT LeftArm
						{
							OFFSET 19.427857 -0.000054 -0.000033
							CHANNELS 3 Zrotation Yrotation Xrotation
							JOINT LeftForeArm
							{
								OFFSET 29.350744 -0.000028 0.000029
								CHANNELS 3 Zrotation Yrotation Xrotation
								JOINT LeftHand
								{
									OFFSET 27.018149 -0.000015 -0.000048
									CHANNELS 3 Zrotation Yrotation Xrotation
									JOINT LeftHandMiddle1
									{
										OFFSET 9.402690 -0.000014 0.000002
										CHANNELS 3 Zrotation Yrotation Xrotation
										JOINT LeftHandMiddle2
										{
											OFFSET 4.950082 0.000004 0.000035
											CHANNELS 3 Zrotation Yrotation Xrotation
											JOINT LeftHandMiddle3
											{
												OFFSET 3.211970 -0.000017 -0.000037
												CHANNELS 3 Zrotation Yrotation Xrotation
												JOINT LeftHandMiddle4
												{
													OFFSET 1.927596 0.000009 -0.000089
													CHANNELS 3 Zrotation Yrotation Xrotation
													End Site
													{
														OFFSET 0.000000 0.000000 0.000000
													}
												}
											}
										}
									}
									JOINT LeftHandRing
									{
										OFFSET 0.249970 -0.250001 -0.906153
										CHANNELS 3 Zrotation Yrotation Xrotation
										JOINT LeftHandRing1
										{
											OFFSET 8.286076 0.000032 -0.747786
											CHANNELS 3 Zrotation Yrotation Xrotation
											JOINT LeftHandRing2
											{
												OFFSET 4.585445 -0.000014 -0.413802
												CHANNELS 3 Zrotation Yrotation Xrotation
												JOINT LeftHandRing3
												{
													OFFSET 3.124417 0.000018 -0.281963
													CHANNELS 3 Zrotation Yrotation Xrotation
													JOINT LeftHandRing4
													{
														OFFSET 1.908769 -0.000043 -0.172239
														CHANNELS 3 Zrotation Yrotation Xrotation
														End Site
														{
															OFFSET 0.000000 0.000000 0.000000
														}
													}
												}
											}
										}
										JOINT LeftHandPinky
										{
											OFFSET 0.167545 -0.250025 -0.924988
											CHANNELS 3 Zrotation Yrotation Xrotation
											JOINT LeftHandPinky1
											{
												OFFSET 6.823476 0.000010 -1.525878
												CHANNELS 3 Zrotation Yrotation Xrotation
												JOINT LeftHandPinky2
												{
													OFFSET 3.642833 0.000010 -0.814597
													CHANNELS 3 Zrotation Yrotation Xrotation
													JOINT LeftHandPinky3
													{
														OFFSET 2.333100 -0.000022 -0.521747
														CHANNELS 3 Zrotation Yrotation Xrotation
														JOINT LeftHandPinky4
														{
															OFFSET 1.725453 0.000000 -0.385856
															CHANNELS 3 Zrotation Yrotation Xrotation
															End Site
															{
																OFFSET 0.000000 0.000000 0.000000
															}
														}
													}
												}
											}
										}
									}
									JOINT LeftHandIndex
									{
										OFFSET 0.250038 -0.250007 0.906160
										CHANNELS 3 Zrotation Yrotation Xrotation
										JOINT LeftHandIndex1
										{
											OFFSET 9.087992 -0.000016 0.820122
											CHANNELS 3 Zrotation Yrotation Xrotation
											JOINT LeftHandIndex2
											{
												OFFSET 4.776554 0.000020 0.431079
												CHANNELS 3 Zrotation Yrotation Xrotation
												JOINT LeftHandIndex3
												{
													OFFSET 2.865133 0.000016 0.258600
													CHANNELS 3 Zrotation Yrotation Xrotation
													JOINT LeftHandIndex4
													{
														OFFSET 1.745475 0.000006 0.157509
														CHANNELS 3 Zrotation Yrotation Xrotation
														End Site
														{
															OFFSET 0.000000 0.000000 0.000000
														}
													}
												}
											}
										}
										JOINT LeftHandThumb1
										{
											OFFSET 0.167536 -0.749991 0.924974
											CHANNELS 3 Zrotation Yrotation Xrotation
											JOINT LeftHandThumb2
											{
												OFFSET 5.551432 0.857133 2.302683
												CHANNELS 3 Zrotation Yrotation Xrotation
												JOINT LeftHandThumb3
												{
													OFFSET 3.625648 0.559769 1.503866
													CHANNELS 3 Zrotation Yrotation Xrotation
													JOINT LeftHandThumb4
													{
														OFFSET 2.195248 0.338951 0.910564
														CHANNELS 3 Zrotation Yrotation Xrotation
														End Site
														{
															OFFSET 0.000000 0.000000 0.000000
														}
													}
												}
											}
										}
									}
								}
							}
						}
					}
				}
			}
		}
	}
	JOINT RightUpLeg
	{
		OFFSET -8.786514 0.000015 0.000011
		CHANNELS 3 Zrotation Yrotation Xrotation
		JOINT RightLeg
		{
			OFFSET -0.000061 -42.170437 -0.000043
			CHANNELS 3 Zrotation Yrotation Xrotation
			JOINT RightFoot
			{
				OFFSET 0.000031 -45.949144 -0.000044
				CHANNELS 3 Zrotation Yrotation Xrotation
				JOINT RightForeFoot
				{
					OFFSET 0.000012 -4.685801 -0.000003
					CHANNELS 3 Zrotation Yrotation Xrotation
					JOINT RightToeBase
					{
						OFFSET 0.000005 -0.000001 18.351048
						CHANNELS 3 Zrotation Yrotation Xrotation
						JOINT RightToeBaseEnd
						{
							OFFSET 0.000097 -0.000041 6.416924
							CHANNELS 3 Zrotation Yrotation Xrotation
							End Site
							{
								OFFSET 0.000000 0.000000 0.000000
							}
						}
					}
				}
			}
		}
	}
	JOINT LeftUpLeg
	{
		OFFSET 8.786523 0.000020 0.000000
		CHANNELS 3 Zrotation Yrotation Xrotation
		JOINT LeftLeg
		{
			OFFSET -0.000014 -42.170431 0.000027
			CHANNELS 3 Zrotation Yrotation Xrotation
			JOINT LeftFoot
			{
				OFFSET 0.000020 -45.949171 -0.000049
				CHANNELS 3 Zrotation Yrotation Xrotation
				JOINT LeftForeFoot
				{
					OFFSET 0.000009 -4.685787 -0.000010
					CHANNELS 3 Zrotation Yrotation Xrotation
					JOINT LeftToeBase
					{
						OFFSET 0.000028 -0.000003 18.351123
						CHANNELS 3 Zrotation Yrotation Xrotation
						JOINT LeftToeBaseEnd
						{
							OFFSET 0.000016 0.000023 7.522026
							CHANNELS 3 Zrotation Yrotation Xrotation
							End Site
							{
								OFFSET 0.000000 0.000000 0.000000
							}
						}
					}
				}
			}
		}
	}
}
MOTION
Frames: 4
Frame Time: 0.066667
12.127129 -1.127052 5.833953 -2.429518 15.957117 -1.227397 2.821568 -1.049450 3.622703 0.124757 0.188937 -2.299885 -0.866231 1.714033 -0.734494 0.749527 0.879221 9.461581 5.280746 -0.020547 5.807065 -7.962265 4.513188 -0.369996 -4.999689 1.160291 1.408943 -0.000858 -0.002772 -0.000586 7.933552 -12.798579 -1.778557 67.644836 10.666659 13.651081 179.998230 57.998917 158.092468 -19.572300 -14.038011 0.039987 38.223694 -9.602136 -0.008428 48.186310 0.000832 -0.000406 22.720798 0.000921 0.001295 -0.000523 -0.002186 -0.002046 -2.724034 -1.584640 -2.566042 51.093437 -3.383770 -4.008371 62.785423 2.804988 -4.600831 23.930586 0.452552 -2.098280 0.000796 0.000779 0.001521 -3.389010 -5.593925 -4.583943 34.106567 7.874748 -7.421805 65.643814 7.580784 -11.750007 43.999435 3.575634 -8.935205 -0.000096 0.000517 -0.000997 -0.341256 7.272093 0.165786 23.088480 -13.388718 2.126935 30.791071 -0.726461 2.648000 25.634336 -0.507668 2.238249 0.000157 0.000499 -0.001616 5.594021 7.019887 47.373154 0.025628 -6.001780 -0.775480 13.275742 -8.961865 3.237273 -0.000888 0.001814 -0.000712 -11.986939 8.754094 -1.852836 -60.601429 0.730485 31.681253 179.998062 -58.294876 151.579163 8.942046 25.489473 0.032106 -26.309992 1.656746 -0.000981 -18.235922 0.002639 0.000853 -14.467716 0.001247 -0.000389 0.000658 -0.000142 -0.001319 -0.803187 1.046267 -11.023116 -18.801550 0.569160 -1.665222 -29.805056 -0.662950 -2.566199 -4.542508 -0.010946 -0.408208 -0.000450 0.000292 0.003057 0.068424 1.328392 -8.996513 -8.786990 7.747394 -1.918302 -30.663256 -1.755393 -6.552492 -20.728662 -0.853030 -4.540641 0.002782 0.001680 0.001864 2.046885 -7.090303 -5.770242 -19.320749 6.689998 1.738298 -4.102881 0.004885 0.371774 -5.955360 0.025936 0.540226 0.002346 0.001035 -0.000084 -12.358475 1.970138 47.854687 -0.335749 3.276692 -0.337129 0.000000 0.000000 0.000000 -0.000984 -0.000471 0.000153 -10.441555 7.220643 -5.857561 -0.002667 0.000667 17.686018 0.000000 0.000000 -0.000000 -0.000000 0.000000 -0.000000 -0.000000 0.000000 0.000000 0.000000 0.000000 0.000000 -3.838825 -13.609942 5.971588 0.002533 0.002741 2.284385 -0.000000 -0.000000 -0.000000 0.000000 0.000000 0.000000 -0.000000 0.000000 0.000000 -0.000000 0.000000 0.000000 
12.044902 -1.099957 5.927373 -2.452334 15.918581 -1.128107 2.830753 -1.049035 3.763762 0.122545 0.183427 -2.281530 -0.863978 1.648251 -0.714461 0.728025 0.855555 9.513765 5.127078 0.081599 5.716171 -7.989819 4.559754 -0.467074 -5.018573 1.165876 1.375193 -0.000532 -0.002638 -0.000562 8.096539 -12.954190 -1.843542 67.677536 8.347626 17.569223 179.997803 58.996902 158.899643 -18.311192 -15.235595 0.046357 37.968761 -9.722562 -0.007959 48.680359 0.000955 -0.000407 22.716492 0.000953 0.001409 -0.000379 -0.002253 -0.002125 -2.788488 -1.564783 -2.269356 50.585384 -3.331595 -3.979398 63.072941 2.834299 -4.612580 23.993107 0.454868 -2.103380 0.000794 0.000647 0.001471 -3.375028 -5.627044 -4.690668 33.754288 7.994359 -7.363103 66.309082 7.712919 -11.811926 44.499672 3.645370 -9.016130 -0.000202 0.000522 -0.001037 -0.292318 7.218701 0.256653 23.530571 -13.569503 2.167066 31.479008 -0.760716 2.701338 26.018099 -0.523430 2.269311 0.000027 0.000397 -0.001677 5.509502 6.902423 47.439690 0.149789 -6.110064 -0.737119 13.384572 -9.040264 3.256217 -0.000876 0.001875 -0.000724 -11.980216 8.822226 -1.865762 -60.409393 0.720742 32.529133 179.998474 -57.996655 152.078323 9.374248 25.763184 0.043390 -26.552155 1.637968 -0.001114 -18.023102 0.002586 0.000878 -14.261407 0.001156 -0.000226 0.000607 -0.000178 -0.001469 -0.797923 1.048337 -10.933203 -18.997587 0.428262 -1.682616 -29.600163 -0.652708 -2.550448 -4.293074 -0.009469 -0.386106 -0.000332 0.000399 0.002849 0.049514 1.333282 -9.044038 -9.012727 7.580329 -1.967440 -30.746365 -1.763487 -6.569653 -20.699009 -0.851740 -4.534532 0.002738 0.001650 0.001827 2.036954 -7.087335 -5.839309 -19.683794 6.864753 1.771059 -4.205176 0.007310 0.381027 -6.037758 0.026934 0.547391 0.002492 0.001058 -0.000071 -12.383180 2.024534 47.932606 -0.370569 3.249425 -0.317508 0.000000 0.000000 0.000000 -0.001063 -0.000653 0.000066 -10.401941 7.327436 -5.852751 -0.002582 0.000704 17.405386 0.000000 0.000000 -0.000000 -0.000000 0.000000 -0.000000 -0.000000 0.000000 0.000000 0.000000 0.000000 0.000000 -3.751069 -13.550604 5.882322 0.002472 0.002433 2.182830 -0.000000 -0.000000 -0.000000 0.000000 0.000000 0.000000 -0.000000 0.000000 0.000000 -0.000000 0.000000 0.000000 
11.974358 -1.078562 5.976632 -2.489132 15.821557 -1.048317 2.868407 -1.057428 3.931819 0.122485 0.175275 -2.262097 -0.850441 1.553556 -0.690233 0.718783 0.825207 9.588442 4.923352 0.274169 5.642498 -7.969265 4.708634 -0.540096 -5.022974 1.175455 1.359122 -0.000210 -0.002566 -0.000710 8.273937 -13.129206 -1.915450 67.979958 5.928096 21.152683 179.997452 60.237743 159.927521 -17.716860 -15.894179 0.046713 37.944897 -9.770061 -0.007536 49.056015 0.001008 -0.000181 22.758331 0.000977 0.001617 -0.000107 -0.002275 -0.002040 -2.829941 -1.564919 -2.090313 50.411179 -3.253594 -3.969310 63.472931 2.872909 -4.628944 24.066980 0.457554 -2.109398 0.000835 0.000644 0.001366 -3.376725 -5.670089 -4.716058 33.597786 8.139402 -7.342479 67.023758 7.858336 -11.876930 44.894257 3.703250 -9.079221 -0.000322 0.000522 -0.000944 -0.253936 7.198835 0.290763 23.929214 -13.717178 2.203723 32.023537 -0.792367 2.743348 26.300747 -0.536320 2.292052 -0.000099 0.000277 -0.001614 5.501314 6.730896 47.646862 0.380326 -6.169884 -0.649422 13.495982 -9.119762 3.276470 -0.000853 0.001818 -0.000625 -12.007513 8.889204 -1.883164 -60.227142 0.776149 33.297630 179.998764 -57.900906 152.637436 10.323173 26.105358 0.078064 -26.776661 1.614655 -0.001132 -18.019068 0.002545 0.000937 -14.152084 0.001222 -0.000090 0.000468 -0.000253 -0.001555 -0.801339 1.058957 -10.877755 -19.183298 0.297135 -1.699219 -29.640352 -0.653211 -2.553593 -4.138474 -0.008462 -0.372567 -0.000209 0.000481 0.002478 0.033641 1.341679 -9.057441 -9.138502 7.427029 -1.995260 -30.902138 -1.779484 -6.600740 -20.719770 -0.853614 -4.538805 0.002633 0.001646 0.001883 2.020370 -7.094881 -5.922729 -19.910803 7.074499 1.791780 -4.293029 0.010299 0.388838 -6.055618 0.027176 0.548633 0.002528 0.001132 -0.000129 -12.440017 2.084213 47.994202 -0.362570 3.214482 -0.314817 0.000000 0.000000 0.000000 -0.001075 -0.000636 0.000023 -10.316216 7.412891 -5.931444 -0.002511 0.000763 17.227962 0.000000 0.000000 -0.000000 -0.000000 0.000000 -0.000000 -0.000000 0.000000 0.000000 0.000000 0.000000 0.000000 -3.642490 -13.503965 5.804046 0.002266 0.001982 2.103998 -0.000000 -0.000000 -0.000000 0.000000 0.000000 0.000000 -0.000000 0.000000 0.000000 -0.000000 0.000000 -0.000000 
11.859911 -1.063437 6.027986 -2.502379 15.608739 -0.961221 2.909384 -1.063587 4.131214 0.122529 0.165785 -2.242248 -0.833167 1.428373 -0.671155 0.708285 0.792415 9.651542 4.703785 0.486258 5.554262 -7.912113 4.937646 -0.580875 -5.022854 1.189276 1.368310 0.000200 -0.002562 -0.000908 8.423434 -13.289485 -1.975693 68.393860 3.677502 24.182121 179.996735 61.520912 161.184143 -17.455732 -16.143255 0.047352 38.031761 -9.758030 -0.006771 49.333385 0.000940 0.000039 22.845877 0.001076 0.001732 0.000183 -0.002315 -0.001825 -2.845102 -1.561249 -2.022244 50.306221 -3.181742 -3.963233 63.766853 2.901771 -4.641270 24.129007 0.459784 -2.114436 0.000890 0.000497 0.001178 -3.376144 -5.685338 -4.728709 33.389282 8.208148 -7.309341 67.518311 7.963645 -11.920997 45.127682 3.739932 -9.116462 -0.000470 0.000549 -0.000656 -0.231115 7.193830 0.253875 24.282175 -13.881765 2.237006 32.477089 -0.820341 2.778035 26.521019 -0.546777 2.309941 -0.000142 0.000067 -0.001501 5.511710 6.537564 47.892567 0.626820 -6.229211 -0.556461 13.624460 -9.210316 3.299235 -0.000884 0.001824 -0.000519 -12.045239 8.946115 -1.898899 -60.083218 0.916281 33.692654 179.998596 -57.975182 153.205368 10.802421 26.321573 0.117502 -27.109299 1.598867 -0.001058 -17.925505 0.002431 0.000950 -14.031860 0.001255 -0.000019 0.000353 -0.000207 -0.001642 -0.801558 1.085383 -10.785155 -19.495953 0.142813 -1.726664 -29.423349 -0.642442 -2.536260 -3.924983 -0.007318 -0.353654 -0.000152 0.000438 0.002223 0.019857 1.370764 -9.059846 -9.296051 7.248502 -2.029832 -30.897943 -1.781746 -6.600654 -20.652792 -0.848233 -4.524993 0.002595 0.001559 0.002061 2.002386 -7.113264 -5.988754 -20.136623 7.272994 1.811958 -4.242040 0.011821 0.383958 -6.052455 0.027581 0.548000 0.002579 0.001129 -0.000307 -12.489121 2.095360 48.090012 -0.391639 3.193097 -0.299157 0.000000 0.000000 0.000000 -0.000983 -0.000335 0.000012 -10.202599 7.385814 -6.115119 -0.002304 0.000703 17.227247 0.000000 0.000000 -0.000000 -0.000000 0.000000 -0.000000 -0.000000 0.000000 0.000000 0.000000 0.000000 0.000000 -3.503033 -13.389798 5.734900 0.001902 0.001255 2.044398 -0.000000 -0.000000 -0.000000 0.000000 0.000000 0.000000 -0.000000 0.000000 0.000000 -0.000000 0.000000 -0.000000 
